<svg width="63" height="70" viewBox="0 0 63 70" fill="none" xmlns="http://www.w3.org/2000/svg">
<path d="M3.00098 67H3.96777V59.2495H3.00098V67ZM5.82617 67H6.76074V63.5732C6.76074 63.2331 6.82161 62.9412 6.94336 62.6978C7.06868 62.4543 7.24414 62.2663 7.46973 62.1338C7.69531 62.0013 7.96208 61.9351 8.27002 61.9351C8.73193 61.9351 9.0721 62.0622 9.29053 62.3164C9.51253 62.5671 9.62354 62.9538 9.62354 63.4766V67H10.5581V63.251C10.5581 62.5635 10.3826 62.0353 10.0317 61.6665C9.68441 61.2941 9.1849 61.1079 8.5332 61.1079C8.1071 61.1079 7.75618 61.1938 7.48047 61.3657C7.20475 61.534 6.99349 61.7721 6.84668 62.0801H6.76074V61.21H5.82617V67ZM14.3071 67.043C14.4002 67.043 14.4915 67.0376 14.5811 67.0269C14.6706 67.0161 14.7601 67.0036 14.8496 66.9893V66.1943C14.7637 66.2015 14.6903 66.2069 14.6294 66.2104C14.5721 66.214 14.5023 66.2158 14.4199 66.2158C14.1191 66.2158 13.9043 66.1424 13.7754 65.9956C13.6465 65.8452 13.582 65.5999 13.582 65.2598V61.9834H14.8496V61.21H13.582V59.7114H12.6152V61.21H11.7021V61.9834H12.6152V65.4961C12.6152 66.0475 12.7477 66.4432 13.0127 66.6831C13.2812 66.923 13.7127 67.043 14.3071 67.043ZM18.5342 67.1021C18.8743 67.1021 19.1805 67.0591 19.4526 66.9731C19.7284 66.8836 19.9665 66.7655 20.167 66.6187C20.3675 66.4683 20.5304 66.3018 20.6558 66.1191C20.7847 65.9329 20.8742 65.7414 20.9243 65.5444L20.9351 65.5015H20.0005L19.979 65.5498C19.9289 65.6644 19.8411 65.7772 19.7158 65.8882C19.5905 65.9992 19.4312 66.0905 19.2378 66.1621C19.0444 66.2337 18.8171 66.2695 18.5557 66.2695C18.2048 66.2695 17.9004 66.1925 17.6426 66.0386C17.3848 65.881 17.186 65.6572 17.0464 65.3672C16.9067 65.0736 16.8369 64.7209 16.8369 64.3091V63.9385C16.8369 63.5052 16.9085 63.14 17.0518 62.8428C17.195 62.5456 17.3883 62.3218 17.6318 62.1714C17.8789 62.0174 18.1582 61.9404 18.4697 61.9404C18.7812 61.9404 19.057 62.0138 19.2969 62.1606C19.5368 62.3039 19.7248 62.5223 19.8608 62.8159C19.9969 63.1095 20.0649 63.4837 20.0649 63.9385V64.3091L20.5269 63.627H16.3643V64.3735H21.0049V64.0083C21.0049 63.4318 20.9028 62.9269 20.6987 62.4937C20.4982 62.0568 20.2082 61.7166 19.8286 61.4731C19.4526 61.2297 19.0015 61.1079 18.4751 61.1079C17.9523 61.1079 17.4958 61.235 17.1055 61.4893C16.7152 61.7435 16.4126 62.0962 16.1978 62.5474C15.9865 62.9985 15.8809 63.5231 15.8809 64.1211V64.1265C15.8809 64.7316 15.9865 65.258 16.1978 65.7056C16.4126 66.1496 16.717 66.4933 17.1108 66.7368C17.5083 66.9803 17.9827 67.1021 18.5342 67.1021ZM22.4551 67H23.3896V63.4121C23.3896 63.1292 23.4541 62.8822 23.583 62.6709C23.7155 62.4596 23.8963 62.2949 24.1255 62.1768C24.3547 62.0586 24.6178 61.9995 24.915 61.9995C25.0189 61.9995 25.1156 62.0049 25.2051 62.0156C25.2982 62.0228 25.3931 62.0353 25.4897 62.0532V61.1455C25.4432 61.1383 25.3752 61.1312 25.2856 61.124C25.1997 61.1133 25.112 61.1079 25.0225 61.1079C24.6322 61.1079 24.3045 61.1921 24.0396 61.3604C23.7746 61.5286 23.5866 61.765 23.4756 62.0693H23.3896V61.21H22.4551V67ZM28.6211 67.1021C29.0257 67.1021 29.3838 67.0125 29.6953 66.8335C30.0068 66.6509 30.2503 66.3984 30.4258 66.0762H30.5117V67H31.4463V58.9111H30.5117V62.123H30.4258C30.2682 61.8151 30.0265 61.5698 29.7007 61.3872C29.3784 61.201 29.0186 61.1079 28.6211 61.1079C28.1305 61.1079 27.7026 61.2314 27.3374 61.4785C26.9757 61.7256 26.6947 62.0729 26.4941 62.5205C26.2936 62.9681 26.1934 63.4945 26.1934 64.0996V64.1104C26.1934 64.7119 26.2936 65.2383 26.4941 65.6895C26.6947 66.137 26.9775 66.4844 27.3428 66.7314C27.708 66.9785 28.1341 67.1021 28.6211 67.1021ZM28.8359 66.2749C28.485 66.2749 28.1825 66.189 27.9282 66.0171C27.6776 65.8416 27.4842 65.5928 27.3481 65.2705C27.2157 64.9447 27.1494 64.5579 27.1494 64.1104V64.0996C27.1494 63.6484 27.2157 63.2617 27.3481 62.9395C27.4842 62.6172 27.6776 62.3701 27.9282 62.1982C28.1825 62.0228 28.485 61.9351 28.8359 61.9351C29.1868 61.9351 29.4894 62.0228 29.7437 62.1982C29.9979 62.3737 30.193 62.6226 30.3291 62.9448C30.4652 63.2671 30.5332 63.652 30.5332 64.0996V64.1104C30.5332 64.5544 30.4652 64.9393 30.3291 65.2651C30.193 65.5874 29.9979 65.8363 29.7437 66.0117C29.4894 66.1872 29.1868 66.2749 28.8359 66.2749ZM33.2617 67H34.1963V61.21H33.2617V67ZM33.7344 60.0928C33.9134 60.0928 34.0656 60.0301 34.1909 59.9048C34.3162 59.7759 34.3789 59.6237 34.3789 59.4482C34.3789 59.2692 34.3162 59.117 34.1909 58.9917C34.0656 58.8664 33.9134 58.8037 33.7344 58.8037C33.5589 58.8037 33.4067 58.8664 33.2778 58.9917C33.1525 59.117 33.0898 59.2692 33.0898 59.4482C33.0898 59.6237 33.1525 59.7759 33.2778 59.9048C33.4067 60.0301 33.5589 60.0928 33.7344 60.0928ZM38.3267 67.1021C38.7922 67.1021 39.1896 67.0251 39.519 66.8711C39.8485 66.7171 40.1134 66.5059 40.314 66.2373C40.5145 65.9652 40.6541 65.6554 40.7329 65.3081L40.7437 65.249L39.8198 65.2544L39.8091 65.2866C39.7017 65.6089 39.5244 65.8542 39.2773 66.0225C39.0303 66.1908 38.7116 66.2749 38.3213 66.2749C37.9775 66.2749 37.6785 66.1854 37.4243 66.0063C37.1701 65.8273 36.9731 65.5749 36.8335 65.249C36.6938 64.9196 36.624 64.5329 36.624 64.0889V64.0781C36.624 63.6413 36.6921 63.2635 36.8281 62.9448C36.9678 62.6226 37.1647 62.3737 37.4189 62.1982C37.6732 62.0228 37.974 61.9351 38.3213 61.9351C38.7367 61.9351 39.0715 62.0353 39.3257 62.2358C39.5799 62.4364 39.7428 62.6799 39.8145 62.9663L39.8198 62.9824H40.749L40.7437 62.9502C40.6864 62.6064 40.5557 62.2967 40.3516 62.021C40.1475 61.7417 39.8753 61.5197 39.5352 61.355C39.195 61.1903 38.7904 61.1079 38.3213 61.1079C37.7806 61.1079 37.3115 61.2314 36.9141 61.4785C36.5166 61.722 36.2087 62.0658 35.9902 62.5098C35.7754 62.9538 35.668 63.4766 35.668 64.0781V64.0889C35.668 64.7012 35.7772 65.2329 35.9956 65.6841C36.214 66.1353 36.522 66.4844 36.9194 66.7314C37.3169 66.9785 37.786 67.1021 38.3267 67.1021ZM44.2778 67.043C44.3709 67.043 44.4622 67.0376 44.5518 67.0269C44.6413 67.0161 44.7308 67.0036 44.8203 66.9893V66.1943C44.7344 66.2015 44.661 66.2069 44.6001 66.2104C44.5428 66.214 44.473 66.2158 44.3906 66.2158C44.0898 66.2158 43.875 66.1424 43.7461 65.9956C43.6172 65.8452 43.5527 65.5999 43.5527 65.2598V61.9834H44.8203V61.21H43.5527V59.7114H42.5859V61.21H41.6729V61.9834H42.5859V65.4961C42.5859 66.0475 42.7184 66.4432 42.9834 66.6831C43.252 66.923 43.6834 67.043 44.2778 67.043ZM46.2383 67H47.1729V61.21H46.2383V67ZM46.7109 60.0928C46.89 60.0928 47.0422 60.0301 47.1675 59.9048C47.2928 59.7759 47.3555 59.6237 47.3555 59.4482C47.3555 59.2692 47.2928 59.117 47.1675 58.9917C47.0422 58.8664 46.89 58.8037 46.7109 58.8037C46.5355 58.8037 46.3833 58.8664 46.2544 58.9917C46.1291 59.117 46.0664 59.2692 46.0664 59.4482C46.0664 59.6237 46.1291 59.7759 46.2544 59.9048C46.3833 60.0301 46.5355 60.0928 46.7109 60.0928ZM51.314 67.1021C51.8654 67.1021 52.3398 66.9821 52.7373 66.7422C53.1348 66.4987 53.4409 66.1532 53.6558 65.7056C53.8742 65.258 53.9834 64.7262 53.9834 64.1104V64.0996C53.9834 63.4801 53.8742 62.9466 53.6558 62.499C53.4409 62.0514 53.1348 61.7077 52.7373 61.4678C52.3398 61.2279 51.8654 61.1079 51.314 61.1079C50.7661 61.1079 50.2917 61.2279 49.8906 61.4678C49.4932 61.7077 49.1852 62.0514 48.9668 62.499C48.752 62.9466 48.6445 63.4801 48.6445 64.0996V64.1104C48.6445 64.7262 48.752 65.258 48.9668 65.7056C49.1852 66.1532 49.4932 66.4987 49.8906 66.7422C50.2917 66.9821 50.7661 67.1021 51.314 67.1021ZM51.314 66.2749C50.9487 66.2749 50.639 66.189 50.3848 66.0171C50.1305 65.8452 49.9354 65.5981 49.7993 65.2759C49.6668 64.9536 49.6006 64.5651 49.6006 64.1104V64.0996C49.6006 63.6413 49.6668 63.251 49.7993 62.9287C49.9354 62.6064 50.1305 62.3612 50.3848 62.1929C50.639 62.021 50.9487 61.9351 51.314 61.9351C51.6792 61.9351 51.9889 62.021 52.2432 62.1929C52.4974 62.3612 52.6908 62.6064 52.8232 62.9287C52.9593 63.251 53.0273 63.6413 53.0273 64.0996V64.1104C53.0273 64.5651 52.9593 64.9536 52.8232 65.2759C52.6908 65.5981 52.4974 65.8452 52.2432 66.0171C51.9889 66.189 51.6792 66.2749 51.314 66.2749ZM55.4336 67H56.3682V63.5732C56.3682 63.2331 56.429 62.9412 56.5508 62.6978C56.6761 62.4543 56.8516 62.2663 57.0771 62.1338C57.3027 62.0013 57.5695 61.9351 57.8774 61.9351C58.3394 61.9351 58.6795 62.0622 58.8979 62.3164C59.12 62.5671 59.231 62.9538 59.231 63.4766V67H60.1655V63.251C60.1655 62.5635 59.9901 62.0353 59.6392 61.6665C59.2918 61.2941 58.7923 61.1079 58.1406 61.1079C57.7145 61.1079 57.3636 61.1938 57.0879 61.3657C56.8122 61.534 56.6009 61.7721 56.4541 62.0801H56.3682V61.21H55.4336V67Z" fill="#EBEBF5" fill-opacity="0.6"/>
<rect x="8" y="2" width="48" height="48" rx="24" fill="white" fill-opacity="0.5" stroke="white" stroke-width="4"/>
<path d="M16.1748 24.6436C15.641 24.6436 15.1641 24.7835 14.7441 25.0635C14.3242 25.3434 13.9938 25.7259 13.7529 26.2109C13.5153 26.696 13.3965 27.2461 13.3965 27.8613C13.3965 28.3105 13.4844 28.7028 13.6602 29.0381C13.8392 29.3701 14.0882 29.6289 14.4072 29.8145C14.7262 30 15.099 30.0928 15.5254 30.0928C15.9128 30.0928 16.266 30.026 16.585 29.8926C16.904 29.7591 17.1709 29.5736 17.3857 29.3359C17.6006 29.0951 17.7438 28.8151 17.8154 28.4961H16.9414C16.8405 28.7598 16.6729 28.9648 16.4385 29.1113C16.2041 29.2546 15.9242 29.3262 15.5986 29.3262C15.3285 29.3262 15.0941 29.2627 14.8955 29.1357C14.7002 29.0088 14.5488 28.8281 14.4414 28.5938C14.334 28.3561 14.2803 28.0745 14.2803 27.749C14.2803 27.417 14.3258 27.1077 14.417 26.8213C14.5081 26.5348 14.6351 26.2858 14.7979 26.0742C14.9639 25.8626 15.1576 25.6982 15.3789 25.5811C15.6035 25.4606 15.846 25.4004 16.1064 25.4004C16.4417 25.4004 16.7266 25.4899 16.9609 25.6689C17.1986 25.848 17.3304 26.0742 17.3564 26.3477H18.2158C18.2126 26.3086 18.2093 26.2695 18.2061 26.2305C18.2028 26.1914 18.1979 26.154 18.1914 26.1182C18.1393 25.8317 18.0189 25.5778 17.8301 25.3564C17.6445 25.1351 17.4085 24.9609 17.1221 24.834C16.8389 24.707 16.5231 24.6436 16.1748 24.6436ZM20.6865 30.0928C20.9242 30.0928 21.1423 30.0602 21.3408 29.9951C21.5394 29.9268 21.7168 29.8275 21.873 29.6973C22.0326 29.5671 22.1676 29.4092 22.2783 29.2236H22.3564V30H23.2061V26.3965C23.2061 26.0319 23.1279 25.7194 22.9717 25.459C22.8187 25.1953 22.5924 24.9935 22.293 24.8535C21.9967 24.7135 21.6338 24.6436 21.2041 24.6436C20.8298 24.6436 20.4961 24.7021 20.2031 24.8193C19.9102 24.9333 19.6709 25.0944 19.4854 25.3027C19.3031 25.5078 19.1891 25.7487 19.1436 26.0254L19.1387 26.0547H19.9883L19.9932 26.04C20.0615 25.835 20.1966 25.6771 20.3984 25.5664C20.6003 25.4525 20.859 25.3955 21.1748 25.3955C21.5687 25.3955 21.8633 25.4818 22.0586 25.6543C22.2572 25.8236 22.3564 26.071 22.3564 26.3965V28.0371C22.3564 28.2878 22.2913 28.5124 22.1611 28.7109C22.0342 28.9095 21.8584 29.0674 21.6338 29.1846C21.4092 29.2985 21.152 29.3555 20.8623 29.3555C20.5563 29.3555 20.3024 29.2822 20.1006 29.1357C19.8988 28.986 19.7979 28.7777 19.7979 28.5107V28.501C19.7979 28.2406 19.889 28.0387 20.0713 27.8955C20.2568 27.7523 20.5498 27.6693 20.9502 27.6465L22.7812 27.5293V26.8506L20.8477 26.9678C20.2357 27.0036 19.762 27.1549 19.4268 27.4219C19.0947 27.6855 18.9287 28.0518 18.9287 28.5205V28.5303C18.9287 28.8493 19.0052 29.126 19.1582 29.3604C19.3145 29.5947 19.5244 29.7754 19.7881 29.9023C20.055 30.0293 20.3545 30.0928 20.6865 30.0928ZM26.8633 29.3359C26.4564 29.3359 26.1341 29.2057 25.8965 28.9453C25.6589 28.6816 25.54 28.3268 25.54 27.8809C25.54 27.5326 25.5889 27.2087 25.6865 26.9092C25.7874 26.6064 25.9258 26.3428 26.1016 26.1182C26.2773 25.8936 26.4824 25.7178 26.7168 25.5908C26.9512 25.4639 27.2051 25.4004 27.4785 25.4004C27.8757 25.4004 28.1849 25.5241 28.4062 25.7715C28.6309 26.0156 28.7432 26.3607 28.7432 26.8066C28.7432 27.168 28.696 27.5033 28.6016 27.8125C28.5072 28.1185 28.3753 28.3854 28.2061 28.6133C28.0368 28.8411 27.8382 29.0186 27.6104 29.1455C27.3825 29.2725 27.1335 29.3359 26.8633 29.3359ZM24.6807 31.7578L25.2715 29.0283H25.3496C25.4115 29.2367 25.5173 29.4222 25.667 29.585C25.82 29.7445 26.0039 29.8698 26.2188 29.9609C26.4368 30.0488 26.6729 30.0928 26.9268 30.0928C27.3076 30.0928 27.6608 30.0065 27.9863 29.834C28.3118 29.6582 28.5967 29.4157 28.8408 29.1064C29.0882 28.7972 29.2803 28.4359 29.417 28.0225C29.5537 27.609 29.6221 27.1615 29.6221 26.6797C29.6221 26.2858 29.5391 25.9359 29.373 25.6299C29.207 25.3239 28.9824 25.083 28.6992 24.9072C28.4193 24.7314 28.1019 24.6436 27.7471 24.6436C27.4118 24.6436 27.096 24.7168 26.7998 24.8633C26.5036 25.0065 26.2594 25.2035 26.0674 25.4541H25.9893L26.1406 24.7363H25.3301L23.8359 31.7578H24.6807ZM32.752 30.0391C32.8366 30.0391 32.9196 30.0342 33.001 30.0244C33.0824 30.0146 33.1637 30.0033 33.2451 29.9902V29.2676C33.167 29.2741 33.1003 29.279 33.0449 29.2822C32.9928 29.2855 32.9294 29.2871 32.8545 29.2871C32.5811 29.2871 32.3857 29.2204 32.2686 29.0869C32.1514 28.9502 32.0928 28.7272 32.0928 28.418V25.4395H33.2451V24.7363H32.0928V23.374H31.2139V24.7363H30.3838V25.4395H31.2139V28.6328C31.2139 29.1341 31.3343 29.4938 31.5752 29.7119C31.8193 29.93 32.2116 30.0391 32.752 30.0391ZM36.5996 30.0928C37.0228 30.0928 37.3841 30.0228 37.6836 29.8828C37.9831 29.7428 38.224 29.5508 38.4062 29.3066C38.5885 29.0592 38.7155 28.7777 38.7871 28.4619L38.7969 28.4082L37.957 28.4131L37.9473 28.4424C37.8496 28.7354 37.6885 28.9583 37.4639 29.1113C37.2393 29.2643 36.9495 29.3408 36.5947 29.3408C36.2822 29.3408 36.0104 29.2594 35.7793 29.0967C35.5482 28.9339 35.3691 28.7044 35.2422 28.4082C35.1152 28.1087 35.0518 27.7572 35.0518 27.3535V27.3438C35.0518 26.9466 35.1136 26.6032 35.2373 26.3135C35.3643 26.0205 35.5433 25.7943 35.7744 25.6348C36.0055 25.4753 36.279 25.3955 36.5947 25.3955C36.9723 25.3955 37.2767 25.4867 37.5078 25.6689C37.7389 25.8512 37.887 26.0726 37.9521 26.333L37.957 26.3477H38.8018L38.7969 26.3184C38.7448 26.0059 38.626 25.7243 38.4404 25.4736C38.2549 25.2197 38.0075 25.0179 37.6982 24.8682C37.389 24.7184 37.0212 24.6436 36.5947 24.6436C36.1032 24.6436 35.6768 24.7559 35.3154 24.9805C34.9541 25.2018 34.6742 25.5143 34.4756 25.918C34.2803 26.3216 34.1826 26.7969 34.1826 27.3438V27.3535C34.1826 27.9102 34.2819 28.3936 34.4805 28.8037C34.679 29.2139 34.959 29.5312 35.3203 29.7559C35.6816 29.9805 36.1081 30.0928 36.5996 30.0928ZM40.0127 30H41.4385V26.8896C41.4385 26.6455 41.4808 26.4339 41.5654 26.2549C41.6533 26.0758 41.7754 25.9375 41.9316 25.8398C42.0911 25.7389 42.2799 25.6885 42.498 25.6885C42.8366 25.6885 43.0856 25.7861 43.2451 25.9814C43.4046 26.1768 43.4844 26.4648 43.4844 26.8457V30H44.9102V26.5234C44.9102 26.0938 44.8385 25.7292 44.6953 25.4297C44.5553 25.1302 44.3486 24.9023 44.0752 24.7461C43.805 24.5866 43.4697 24.5068 43.0693 24.5068C42.6852 24.5068 42.363 24.5915 42.1025 24.7607C41.8421 24.93 41.6501 25.1611 41.5264 25.4541H41.4385V22.5684H40.0127V30ZM47.8154 30.0928C48.0531 30.0928 48.2712 30.0602 48.4697 29.9951C48.6683 29.9268 48.8457 29.8275 49.002 29.6973C49.1615 29.5671 49.2965 29.4092 49.4072 29.2236H49.4854V30H50.335V26.3965C50.335 26.0319 50.2568 25.7194 50.1006 25.459C49.9476 25.1953 49.7214 24.9935 49.4219 24.8535C49.1257 24.7135 48.7627 24.6436 48.333 24.6436C47.9587 24.6436 47.625 24.7021 47.332 24.8193C47.0391 24.9333 46.7998 25.0944 46.6143 25.3027C46.432 25.5078 46.318 25.7487 46.2725 26.0254L46.2676 26.0547H47.1172L47.1221 26.04C47.1904 25.835 47.3255 25.6771 47.5273 25.5664C47.7292 25.4525 47.988 25.3955 48.3037 25.3955C48.6976 25.3955 48.9922 25.4818 49.1875 25.6543C49.3861 25.8236 49.4854 26.071 49.4854 26.3965V28.0371C49.4854 28.2878 49.4202 28.5124 49.29 28.7109C49.1631 28.9095 48.9873 29.0674 48.7627 29.1846C48.5381 29.2985 48.2809 29.3555 47.9912 29.3555C47.6852 29.3555 47.4313 29.2822 47.2295 29.1357C47.0277 28.986 46.9268 28.7777 46.9268 28.5107V28.501C46.9268 28.2406 47.0179 28.0387 47.2002 27.8955C47.3857 27.7523 47.6787 27.6693 48.0791 27.6465L49.9102 27.5293V26.8506L47.9766 26.9678C47.3646 27.0036 46.891 27.1549 46.5557 27.4219C46.2236 27.6855 46.0576 28.0518 46.0576 28.5205V28.5303C46.0576 28.8493 46.1341 29.126 46.2871 29.3604C46.4434 29.5947 46.6533 29.7754 46.917 29.9023C47.1839 30.0293 47.4834 30.0928 47.8154 30.0928Z" fill="white"/>
<path d="M12.9033 28.5938H18.4453V28.8379H12.9033V28.5938ZM23.9678 28.5938H30.0908V28.8379H23.9678V28.5938Z" fill="white"/>
<path d="M18.4502 26.9727H23.9678V27.5586H18.4502V26.9727ZM30.0908 26.9727H39.251V27.5586H30.0908V26.9727ZM45.5791 26.9727H51.0967V27.5586H45.5791V26.9727Z" fill="white"/>
<path d="M39.251 26.7773H45.5742V27.7051H39.251V26.7773Z" fill="white"/>
</svg>
