<svg width="24" height="24" viewBox="0 0 24 24" fill="none" xmlns="http://www.w3.org/2000/svg">
<path fill-rule="evenodd" clip-rule="evenodd" d="M22 3V3.67202V18.672V19.344L21.3563 19.1509L14.5187 17.0996C13.9217 18.8851 12.2366 20.172 10.25 20.172C7.76472 20.172 5.75 18.1573 5.75 15.672C5.75 15.341 5.7739 15.0035 5.83747 14.672H2.5H2V14.172V8.17202V7.67202H2.5H6.42661L21.3563 3.1931L22 3ZM6.83304 14.7939L13.5603 16.8121C13.0874 18.1854 11.7835 19.172 10.25 19.172C8.317 19.172 6.75 17.605 6.75 15.672C6.75 15.3594 6.77503 15.0651 6.83304 14.7939ZM21 4.34403L6.64367 8.65093L6.57338 8.67202H6.5H3V13.672H6.5H6.57338L6.64367 13.6931L14.3135 15.994L21 18V4.34403Z" fill="black"/>
</svg>
