<svg width="40" height="40" viewBox="0 0 40 40" fill="none" xmlns="http://www.w3.org/2000/svg">
<path fill-rule="evenodd" clip-rule="evenodd" d="M8.66699 3.6665H9.16699H30.8337H31.3337V4.1665V35.8332V36.728L30.5716 36.259L20.0003 29.7536L9.42904 36.259L8.66699 36.728V35.8332V4.1665V3.6665ZM9.66699 4.6665V34.9384L19.7383 28.7407L20.0003 28.5794L20.2624 28.7407L30.3337 34.9384V4.6665H9.66699ZM13.667 10.3332H14.167H25.8337H26.3337V11.3332H25.8337H14.167H13.667V10.3332ZM13.667 15.3332H14.167H25.8337H26.3337V16.3332H25.8337H14.167H13.667V15.3332ZM13.667 20.3332H14.167H19.167H19.667V21.3332H19.167H14.167H13.667V20.3332Z" fill="black"/>
<path d="M8.66699 3.6665V3.1665H8.16699V3.6665H8.66699ZM31.3337 3.6665H31.8337V3.1665H31.3337V3.6665ZM31.3337 36.728L31.0716 37.1538L31.8337 37.6227V36.728H31.3337ZM30.5716 36.259L30.3096 36.6848L30.5716 36.259ZM20.0003 29.7536L20.2624 29.3278L20.0003 29.1665L19.7383 29.3278L20.0003 29.7536ZM9.42904 36.259L9.69109 36.6848H9.69109L9.42904 36.259ZM8.66699 36.728H8.16699V37.6227L8.92904 37.1538L8.66699 36.728ZM9.66699 34.9384H9.16699V35.8332L9.92904 35.3642L9.66699 34.9384ZM9.66699 4.6665V4.1665H9.16699V4.6665H9.66699ZM19.7383 28.7407L20.0003 29.1665L20.0003 29.1665L19.7383 28.7407ZM20.0003 28.5794L20.2624 28.1536L20.0003 27.9923L19.7383 28.1536L20.0003 28.5794ZM20.2624 28.7407L20.0003 29.1665L20.0003 29.1665L20.2624 28.7407ZM30.3337 34.9384L30.0716 35.3642L30.8337 35.8332V34.9384H30.3337ZM30.3337 4.6665H30.8337V4.1665H30.3337V4.6665ZM13.667 10.3332V9.83317H13.167V10.3332H13.667ZM26.3337 10.3332H26.8337V9.83317H26.3337V10.3332ZM26.3337 11.3332V11.8332H26.8337V11.3332H26.3337ZM13.667 11.3332H13.167V11.8332H13.667V11.3332ZM13.667 15.3332V14.8332H13.167V15.3332H13.667ZM26.3337 15.3332H26.8337V14.8332H26.3337V15.3332ZM26.3337 16.3332V16.8332H26.8337V16.3332H26.3337ZM13.667 16.3332H13.167V16.8332H13.667V16.3332ZM13.667 20.3332V19.8332H13.167V20.3332H13.667ZM19.667 20.3332H20.167V19.8332H19.667V20.3332ZM19.667 21.3332V21.8332H20.167V21.3332H19.667ZM13.667 21.3332H13.167V21.8332H13.667V21.3332ZM9.16699 3.1665H8.66699V4.1665H9.16699V3.1665ZM30.8337 3.1665H9.16699V4.1665H30.8337V3.1665ZM31.3337 3.1665H30.8337V4.1665H31.3337V3.1665ZM31.8337 4.1665V3.6665H30.8337V4.1665H31.8337ZM31.8337 35.8332V4.1665H30.8337V35.8332H31.8337ZM31.8337 36.728V35.8332H30.8337V36.728H31.8337ZM30.3096 36.6848L31.0716 37.1538L31.5957 36.3021L30.8337 35.8332L30.3096 36.6848ZM19.7383 30.1794L30.3096 36.6848L30.8337 35.8332L20.2624 29.3278L19.7383 30.1794ZM9.69109 36.6848L20.2624 30.1794L19.7383 29.3278L9.16699 35.8332L9.69109 36.6848ZM8.92904 37.1538L9.69109 36.6848L9.16699 35.8332L8.40494 36.3021L8.92904 37.1538ZM8.16699 35.8332V36.728H9.16699V35.8332H8.16699ZM8.16699 4.1665V35.8332H9.16699V4.1665H8.16699ZM8.16699 3.6665V4.1665H9.16699V3.6665H8.16699ZM10.167 34.9384V4.6665H9.16699V34.9384H10.167ZM19.4762 28.3148L9.40494 34.5126L9.92904 35.3642L20.0003 29.1665L19.4762 28.3148ZM19.7383 28.1536L19.4762 28.3148L20.0003 29.1665L20.2624 29.0052L19.7383 28.1536ZM20.5244 28.3148L20.2624 28.1536L19.7383 29.0052L20.0003 29.1665L20.5244 28.3148ZM30.5957 34.5126L20.5244 28.3148L20.0003 29.1665L30.0716 35.3642L30.5957 34.5126ZM29.8337 4.6665V34.9384H30.8337V4.6665H29.8337ZM9.66699 5.1665H30.3337V4.1665H9.66699V5.1665ZM14.167 9.83317H13.667V10.8332H14.167V9.83317ZM25.8337 9.83317H14.167V10.8332H25.8337V9.83317ZM26.3337 9.83317H25.8337V10.8332H26.3337V9.83317ZM26.8337 11.3332V10.3332H25.8337V11.3332H26.8337ZM25.8337 11.8332H26.3337V10.8332H25.8337V11.8332ZM14.167 11.8332H25.8337V10.8332H14.167V11.8332ZM13.667 11.8332H14.167V10.8332H13.667V11.8332ZM13.167 10.3332V11.3332H14.167V10.3332H13.167ZM14.167 14.8332H13.667V15.8332H14.167V14.8332ZM25.8337 14.8332H14.167V15.8332H25.8337V14.8332ZM26.3337 14.8332H25.8337V15.8332H26.3337V14.8332ZM26.8337 16.3332V15.3332H25.8337V16.3332H26.8337ZM25.8337 16.8332H26.3337V15.8332H25.8337V16.8332ZM14.167 16.8332H25.8337V15.8332H14.167V16.8332ZM13.667 16.8332H14.167V15.8332H13.667V16.8332ZM13.167 15.3332V16.3332H14.167V15.3332H13.167ZM14.167 19.8332H13.667V20.8332H14.167V19.8332ZM19.167 19.8332H14.167V20.8332H19.167V19.8332ZM19.667 19.8332H19.167V20.8332H19.667V19.8332ZM20.167 21.3332V20.3332H19.167V21.3332H20.167ZM19.167 21.8332H19.667V20.8332H19.167V21.8332ZM14.167 21.8332H19.167V20.8332H14.167V21.8332ZM13.667 21.8332H14.167V20.8332H13.667V21.8332ZM13.167 20.3332V21.3332H14.167V20.3332H13.167Z" fill="black"/>
</svg>
