<svg width="24" height="24" viewBox="0 0 24 24" fill="none" xmlns="http://www.w3.org/2000/svg">
<path fill-rule="evenodd" clip-rule="evenodd" d="M1.5 12C1.5 6.22386 6.22386 1.5 12 1.5C17.7761 1.5 22.5 6.22386 22.5 12C22.5 14.9203 21.0417 17.5449 19.0291 19.4276C17.0211 21.3061 14.4042 22.5 12 22.5C9.59576 22.5 6.97889 21.3061 4.97092 19.4276C2.9583 17.5449 1.5 14.9203 1.5 12ZM12 2.5C6.77614 2.5 2.5 6.77614 2.5 12C2.5 14.5797 3.7917 16.9551 5.65408 18.6974C7.52111 20.4439 9.90424 21.5 12 21.5C14.0958 21.5 16.4789 20.4439 18.3459 18.6974C20.2083 16.9551 21.5 14.5797 21.5 12C21.5 6.77614 17.2239 2.5 12 2.5ZM12.4998 6.49984L12.5 6.99984L12.5003 7.79975C13.2011 7.81794 13.9261 7.90582 14.576 8.00581L15.0702 8.08184L14.9182 9.07021L14.424 8.99419C13.6327 8.87245 12.7758 8.77742 12.0149 8.79949C11.3559 8.8186 10.8308 8.92463 10.4852 9.12475C10.1797 9.30171 10 9.55564 10 10C10 10.2242 10.0542 10.3609 10.1217 10.4555C10.1932 10.5555 10.3087 10.6485 10.4927 10.7344C10.8212 10.8877 11.2436 10.9691 11.7593 11.0686C11.8681 11.0895 11.981 11.1113 12.0981 11.1347C12.7189 11.2589 13.4465 11.4303 14.0144 11.8468C14.6246 12.2942 15 12.9825 15 14C15 15.2849 13.9342 16.1424 12.5 16.4719V17.5V18H11.5V17.5V16.614C10.8674 16.6551 10.1682 16.6183 9.4178 16.4932L8.9246 16.411L9.089 15.4246L9.5822 15.5068C10.4813 15.6567 11.2713 15.6626 11.9253 15.5638C13.3999 15.3408 14 14.6487 14 14C14 13.2675 13.7504 12.8933 13.4231 12.6532C13.0535 12.3822 12.5311 12.2411 11.9019 12.1153C11.8084 12.0966 11.7113 12.0781 11.612 12.0592C11.0973 11.9612 10.5222 11.8517 10.0698 11.6406C9.78507 11.5077 9.50994 11.3195 9.30798 11.0367C9.10207 10.7484 9 10.4008 9 10C9 9.18377 9.38308 8.60749 9.98405 8.25942C10.418 8.00807 10.9502 7.88304 11.5003 7.8297L11.5 7.00016L11.4998 6.50016L12.4998 6.49984Z" fill="black"/>
</svg>
