<svg width="24" height="24" viewBox="0 0 24 24" fill="none" xmlns="http://www.w3.org/2000/svg">
<path d="M9.36237 19.9377C9.80143 19.9377 10.1574 19.598 10.1574 19.1788C10.1574 18.7597 9.80143 18.4199 9.36237 18.4199C8.92331 18.4199 8.56738 18.7597 8.56738 19.1788C8.56738 19.598 8.92331 19.9377 9.36237 19.9377Z" stroke="black" stroke-width="2" stroke-linecap="round" stroke-linejoin="round"/>
<path d="M18.1055 19.9377C18.5446 19.9377 18.9005 19.598 18.9005 19.1788C18.9005 18.7597 18.5446 18.4199 18.1055 18.4199C17.6665 18.4199 17.3105 18.7597 17.3105 19.1788C17.3105 19.598 17.6665 19.9377 18.1055 19.9377Z" stroke="black" stroke-width="2" stroke-linecap="round" stroke-linejoin="round"/>
<path d="M3 4H6.17997L8.31054 14.1618C8.38324 14.5112 8.58236 14.825 8.87303 15.0484C9.16371 15.2718 9.52743 15.3904 9.90052 15.3836H17.6278C18.0009 15.3904 18.3647 15.2718 18.6553 15.0484C18.946 14.825 19.1451 14.5112 19.2178 14.1618L20.4898 7.79453H6.97496" stroke="black" stroke-width="2" stroke-linecap="round" stroke-linejoin="round"/>
</svg>
