<svg width="24" height="24" viewBox="0 0 24 24" fill="none" xmlns="http://www.w3.org/2000/svg">
<path fill-rule="evenodd" clip-rule="evenodd" d="M1.5 7C1.5 6.17157 2.17157 5.5 3 5.5H21C21.8284 5.5 22.5 6.17157 22.5 7V13.5V14.5V15.5V17C22.5 17.8284 21.8284 18.5 21 18.5H3C2.17157 18.5 1.5 17.8284 1.5 17V15.5V14.5V13.5V7ZM2.5 15.5V17C2.5 17.2761 2.72386 17.5 3 17.5H21C21.2761 17.5 21.5 17.2761 21.5 17V15.5H2.5ZM21.5 13.5H2.5V7C2.5 6.72386 2.72386 6.5 3 6.5H21C21.2761 6.5 21.5 6.72386 21.5 7V13.5Z" fill="black"/>
</svg>
