<svg width="40" height="40" viewBox="0 0 40 40" fill="none" xmlns="http://www.w3.org/2000/svg">
<path fill-rule="evenodd" clip-rule="evenodd" d="M2.83301 9.5H3.33301H36.6663H37.1663V10V30V30.5H36.6663H3.33301H2.83301V30V10V9.5ZM3.83301 10.5V29.5H36.1663V10.5H3.83301ZM9.49967 15.3333H9.99967H26.6663H27.1663V16.3333H26.6663H9.99967H9.49967V15.3333ZM9.49967 20.3333H9.99967H19.9997H20.4997V21.3333H19.9997H9.99967H9.49967V20.3333Z" fill="black"/>
<path d="M2.83301 9.5V9H2.33301V9.5H2.83301ZM37.1663 9.5H37.6663V9H37.1663V9.5ZM37.1663 30.5V31H37.6663V30.5H37.1663ZM2.83301 30.5H2.33301V31H2.83301V30.5ZM3.83301 29.5H3.33301V30H3.83301V29.5ZM3.83301 10.5V10H3.33301V10.5H3.83301ZM36.1663 29.5V30H36.6663V29.5H36.1663ZM36.1663 10.5H36.6663V10H36.1663V10.5ZM9.49967 15.3333V14.8333H8.99967V15.3333H9.49967ZM27.1663 15.3333H27.6663V14.8333H27.1663V15.3333ZM27.1663 16.3333V16.8333H27.6663V16.3333H27.1663ZM9.49967 16.3333H8.99967V16.8333H9.49967V16.3333ZM9.49967 20.3333V19.8333H8.99967V20.3333H9.49967ZM20.4997 20.3333H20.9997V19.8333H20.4997V20.3333ZM20.4997 21.3333V21.8333H20.9997V21.3333H20.4997ZM9.49967 21.3333H8.99967V21.8333H9.49967V21.3333ZM3.33301 9H2.83301V10H3.33301V9ZM36.6663 9H3.33301V10H36.6663V9ZM37.1663 9H36.6663V10H37.1663V9ZM37.6663 10V9.5H36.6663V10H37.6663ZM37.6663 30V10H36.6663V30H37.6663ZM37.6663 30.5V30H36.6663V30.5H37.6663ZM36.6663 31H37.1663V30H36.6663V31ZM3.33301 31H36.6663V30H3.33301V31ZM2.83301 31H3.33301V30H2.83301V31ZM2.33301 30V30.5H3.33301V30H2.33301ZM2.33301 10V30H3.33301V10H2.33301ZM2.33301 9.5V10H3.33301V9.5H2.33301ZM4.33301 29.5V10.5H3.33301V29.5H4.33301ZM36.1663 29H3.83301V30H36.1663V29ZM35.6663 10.5V29.5H36.6663V10.5H35.6663ZM3.83301 11H36.1663V10H3.83301V11ZM9.99967 14.8333H9.49967V15.8333H9.99967V14.8333ZM26.6663 14.8333H9.99967V15.8333H26.6663V14.8333ZM27.1663 14.8333H26.6663V15.8333H27.1663V14.8333ZM27.6663 16.3333V15.3333H26.6663V16.3333H27.6663ZM26.6663 16.8333H27.1663V15.8333H26.6663V16.8333ZM9.99967 16.8333H26.6663V15.8333H9.99967V16.8333ZM9.49967 16.8333H9.99967V15.8333H9.49967V16.8333ZM8.99967 15.3333V16.3333H9.99967V15.3333H8.99967ZM9.99967 19.8333H9.49967V20.8333H9.99967V19.8333ZM19.9997 19.8333H9.99967V20.8333H19.9997V19.8333ZM20.4997 19.8333H19.9997V20.8333H20.4997V19.8333ZM20.9997 21.3333V20.3333H19.9997V21.3333H20.9997ZM19.9997 21.8333H20.4997V20.8333H19.9997V21.8333ZM9.99967 21.8333H19.9997V20.8333H9.99967V21.8333ZM9.49967 21.8333H9.99967V20.8333H9.49967V21.8333ZM8.99967 20.3333V21.3333H9.99967V20.3333H8.99967Z" fill="black"/>
</svg>
