<svg width="24" height="24" viewBox="0 0 24 24" fill="none" xmlns="http://www.w3.org/2000/svg">
<path fill-rule="evenodd" clip-rule="evenodd" d="M16.6603 4.60084L19.4003 7.34084C20.1663 8.0706 20.1976 9.2825 19.4703 10.0508L10.4703 19.0508C10.1443 19.3741 9.7171 19.5753 9.2603 19.6208L5.0903 20.0008H5.0003C4.7345 20.0024 4.47902 19.898 4.2903 19.7108C4.07934 19.5007 3.97303 19.2074 4.0003 18.9108L4.4303 14.7408C4.47581 14.284 4.67707 13.8568 5.0003 13.5308L14.0003 4.53084C14.7761 3.87539 15.92 3.90549 16.6603 4.60084ZM13.3203 8.00084L16.0003 10.6808L18.0003 8.73084L15.2703 6.00084L13.3203 8.00084Z" fill="#60708F"/>
</svg>
