<svg width="24" height="24" viewBox="0 0 24 24" fill="none" xmlns="http://www.w3.org/2000/svg">
<path fill-rule="evenodd" clip-rule="evenodd" d="M1.2273 11.7044C3.83322 8.14086 7.71966 5.03809 12.0004 5.03809C16.2811 5.03809 20.1675 8.14086 22.7734 11.7044L22.9893 11.9995L22.7734 12.2947C21.9234 13.457 20.9459 14.409 19.8708 15.1659L20.9454 17.2723L21.1727 17.7177L20.2819 18.1721L20.0547 17.7267L19.0256 15.7097C18.2123 16.1863 17.3541 16.5614 16.4633 16.8424L16.9844 18.8754L17.1085 19.3597L16.1398 19.608L16.0157 19.1237L15.4989 17.1074C14.526 17.3365 13.5217 17.4616 12.5003 17.4921L12.5 19.4996L12.5 19.9996L11.5 19.9994L11.5 19.4994L11.5003 17.4921C10.479 17.4616 9.47458 17.3365 8.50168 17.1074L7.98436 19.1238L7.8601 19.6081L6.89147 19.3596L7.01573 18.8753L7.53727 16.8424C6.71478 16.5829 5.91999 16.2432 5.16259 15.8174L3.92193 17.7679L3.65358 18.1897L2.80981 17.653L3.07816 17.2312L4.31188 15.2916C3.16519 14.5153 2.12513 13.5224 1.2273 12.2947L1.01147 11.9995L1.2273 11.7044ZM2.25562 11.9977C3.13797 13.1329 4.15245 14.0305 5.26267 14.7158C6.20133 15.2952 7.21193 15.725 8.27415 16.0174C9.46063 16.3441 10.7125 16.4995 12.0004 16.4995C13.2882 16.4995 14.5401 16.3441 15.7266 16.0174C16.87 15.7027 17.9537 15.2287 18.9523 14.5802C19.9788 13.9135 20.9197 13.0597 21.7451 11.9977C19.2242 8.67199 15.6972 6.03809 12.0004 6.03809C8.3035 6.03809 4.77657 8.67199 2.25562 11.9977Z" fill="#60708F"/>
</svg>
