<svg width="24" height="24" viewBox="0 0 24 24" fill="none" xmlns="http://www.w3.org/2000/svg">
<path fill-rule="evenodd" clip-rule="evenodd" d="M1.22727 11.7044C3.83319 8.14086 7.71963 5.03809 12.0003 5.03809C16.281 5.03809 20.1675 8.14086 22.7734 11.7044L22.9892 11.9995L22.7734 12.2947C20.1675 15.8581 16.281 18.9612 12.0003 18.9612C7.71967 18.9612 3.83314 15.8581 1.22727 12.2947L1.01144 11.9995L1.22727 11.7044ZM2.25419 11.9995C4.77522 15.3261 8.30284 17.9612 12.0003 17.9612C15.6978 17.9612 19.2255 15.3261 21.7465 11.9995C19.2254 8.67296 15.6979 6.03809 12.0003 6.03809C8.30278 6.03809 4.77524 8.67296 2.25419 11.9995ZM7.72962 11.9996C7.72962 9.40902 9.58123 7.19193 12.0003 7.19193C14.4194 7.19193 16.271 9.40902 16.271 11.9996C16.271 14.5902 14.4194 16.8073 12.0003 16.8073C9.58123 16.8073 7.72962 14.5902 7.72962 11.9996ZM12.0003 8.19193C10.2544 8.19193 8.72962 9.83209 8.72962 11.9996C8.72962 14.1672 10.2544 15.8073 12.0003 15.8073C13.7462 15.8073 15.271 14.1672 15.271 11.9996C15.271 9.83209 13.7462 8.19193 12.0003 8.19193ZM12.0004 10.8842C11.5561 10.8842 11.0864 11.319 11.0864 11.9996C11.0864 12.6802 11.5561 13.115 12.0004 13.115C12.4448 13.115 12.9144 12.6802 12.9144 11.9996C12.9144 11.319 12.4448 10.8842 12.0004 10.8842ZM10.0864 11.9996C10.0864 10.8959 10.8829 9.88424 12.0004 9.88424C13.118 9.88424 13.9144 10.8959 13.9144 11.9996C13.9144 13.1033 13.118 14.115 12.0004 14.115C10.8829 14.115 10.0864 13.1033 10.0864 11.9996Z" fill="#60708F"/>
</svg>
