<svg width="24" height="24" viewBox="0 0 24 24" fill="none" xmlns="http://www.w3.org/2000/svg">
<path fill-rule="evenodd" clip-rule="evenodd" d="M6.95692 6.36213L7.31047 6.71568L8.01758 6.00857L7.66402 5.65502L5.36256 3.35355L5.009 3L4.65545 3.35355L2.35398 5.65502L2.00043 6.00857L2.70754 6.71568L3.06109 6.36213L4.509 4.91421L4.509 10.4345V10.9345H5.509V10.4345L5.509 4.91421L6.95692 6.36213ZM18.3976 9.12836C18.572 8.97147 18.8319 8.95683 19.0227 9.09314L21.8694 11.1264L22.2762 11.4171L22.8575 10.6033L22.4506 10.3127L19.604 8.27941C19.0315 7.87046 18.2516 7.9144 17.7287 8.38507L13.6107 12.0912C13.5189 12.1739 13.3998 12.2196 13.2762 12.2196H9.24838C8.70363 12.2196 8.2017 12.5149 7.93714 12.9911L5.88531 16.6844C5.83261 16.7793 5.75047 16.8544 5.6513 16.8985L1.45691 18.7627L1 18.9657L1.40614 19.8795L1.86304 19.6765L6.05744 17.8123C6.35495 17.6801 6.60136 17.4546 6.75947 17.1701L8.8113 13.4768C8.89948 13.318 9.06679 13.2196 9.24838 13.2196H13.2762C13.6468 13.2196 14.0042 13.0824 14.2797 12.8345L18.3976 9.12836Z" fill="black"/>
</svg>
