<svg width="38" height="38" viewBox="0 0 38 38" fill="none" xmlns="http://www.w3.org/2000/svg">
<circle cx="19" cy="19" r="19" fill="#EBEBEB"/>
<path fill-rule="evenodd" clip-rule="evenodd" d="M14.371 8.70404C15.5685 8.6494 15.9508 8.63647 19 8.63647C22.0491 8.63647 22.4315 8.6494 23.6289 8.70404C24.824 8.75859 25.6401 8.94835 26.3543 9.22591C27.0926 9.51283 27.7187 9.89673 28.3428 10.5209C28.967 11.145 29.3509 11.7712 29.6378 12.5095C29.9154 13.2236 30.1051 14.0397 30.1597 15.2348C30.2143 16.4323 30.2272 16.8146 30.2272 19.8638C30.2272 22.9129 30.2143 23.2953 30.1597 24.4927C30.1051 25.6878 29.9154 26.5039 29.6378 27.2181C29.3509 27.9564 28.967 28.5825 28.3428 29.2066C27.7187 29.8308 27.0926 30.2147 26.3543 30.5016C25.6401 30.7792 24.824 30.969 23.6289 31.0235C22.4315 31.0781 22.0491 31.091 19 31.091C15.9508 31.091 15.5685 31.0781 14.371 31.0235C13.1759 30.969 12.3598 30.7792 11.6456 30.5016C10.9074 30.2147 10.2812 29.8308 9.65708 29.2066C9.03292 28.5825 8.64902 27.9563 8.3621 27.2181C8.08454 26.5039 7.89477 25.6878 7.84022 24.4927C7.78558 23.2953 7.77271 22.9129 7.77271 19.8638C7.77271 16.8146 7.78558 16.4323 7.84022 15.2348C7.89477 14.0397 8.08454 13.2236 8.3621 12.5095C8.64902 11.7712 9.03292 11.145 9.65708 10.5209C10.2812 9.89673 10.9074 9.51283 11.6456 9.22591C12.3598 8.94835 13.1759 8.75859 14.371 8.70404ZM24.9931 15.2179C25.7372 15.2179 26.3404 14.6147 26.3404 13.8706C26.3404 13.1265 25.7372 12.5234 24.9931 12.5234C24.249 12.5234 23.6458 13.1265 23.6458 13.8706C23.6458 14.6147 24.249 15.2179 24.9931 15.2179ZM24.2394 19.8634C24.2394 22.7571 21.8937 25.1028 19 25.1028C16.1064 25.1028 13.7606 22.7571 13.7606 19.8634C13.7606 16.9698 16.1064 14.624 19 14.624C21.8937 14.624 24.2394 16.9698 24.2394 19.8634ZM22.4545 19.8637C22.4545 21.7716 20.9078 23.3183 19 23.3183C17.0921 23.3183 15.5454 21.7716 15.5454 19.8637C15.5454 17.9558 17.0921 16.4092 19 16.4092C20.9078 16.4092 22.4545 17.9558 22.4545 19.8637Z" fill="black"/>
</svg>
