<svg width="24" height="24" viewBox="0 0 24 24" fill="none" xmlns="http://www.w3.org/2000/svg">
<path fill-rule="evenodd" clip-rule="evenodd" d="M2 2L3.00005 2.00005L12.5001 2.00054L13.5 2.00059V3.00054V8.00054V9.00054H11.5V8.00054V4.00049L4 4.0001V20.0001H11.5V16.0001V15.0001H13.5V16.0001V21.0001V22.0001H12.5H3H2V21.0001V3.00005V2ZM17 6.08681L17.7071 6.79392L22.2071 11.2939L22.9142 12.001L22.2071 12.7081L17.7071 17.2081L17 17.9152L15.5858 16.501L16.2929 15.7939L19.0858 13.001H7.49994H6.49994V11.001H7.49994H19.0858L16.2929 8.20813L15.5858 7.50103L17 6.08681Z" fill="#60708F"/>
</svg>
