<svg width="24" height="24" viewBox="0 0 24 24" fill="none" xmlns="http://www.w3.org/2000/svg">
<path d="M12.9804 10.2187L7.20946 15.7287L5.25054 14.9517L5.0756 15.1207L7.56877 16.7077L9.23227 19.0877L9.40826 18.9197L8.59536 17.0497L14.3663 11.5417L18.9001 17.7937L19.1201 17.5857L16.0958 9.88971L20.705 5.49171C20.879 5.3144 20.974 5.07945 20.9698 4.83653C20.9657 4.5936 20.8627 4.36173 20.6828 4.18994C20.5028 4.01814 20.2599 3.91987 20.0054 3.91591C19.751 3.91195 19.5048 4.0026 19.3191 4.16871L14.7099 8.56771L6.65007 5.68171L6.43008 5.89071L12.9804 10.2187ZM18.6267 20.7017L14.0908 14.4487L10.9063 17.4887L11.7202 19.3587L8.92744 22.0237L6.15667 18.0567L2 15.4107L4.79276 12.7447L6.75063 13.5207L9.93518 10.4807L3.38486 6.15271L6.15667 3.50771L14.2176 6.39271L17.9332 2.84571C18.2049 2.58003 18.5292 2.36848 18.8872 2.22332C19.2452 2.07816 19.6299 2.00227 20.0188 2.00005C20.4078 1.99783 20.7933 2.06933 21.1531 2.2104C21.5129 2.35147 21.8398 2.5593 22.1149 2.82186C22.3899 3.08441 22.6076 3.39647 22.7554 3.73994C22.9032 4.08341 22.9781 4.45146 22.9757 4.82276C22.9734 5.19407 22.8939 5.56124 22.7419 5.903C22.5898 6.24476 22.3682 6.55431 22.0899 6.81371L18.3742 10.3607L21.3974 18.0567L18.6256 20.7017H18.6267Z" fill="black"/>
</svg>
