<svg width="24" height="24" viewBox="0 0 24 24" fill="none" xmlns="http://www.w3.org/2000/svg">
<path fill-rule="evenodd" clip-rule="evenodd" d="M13.9571 2C9.81497 2 6.45711 5.35786 6.45711 9.5C6.45711 11.5712 7.29602 13.4455 8.65381 14.8033C10.0116 16.1611 11.8859 17 13.9571 17C18.0992 17 21.4571 13.6421 21.4571 9.5C21.4571 5.35786 18.0992 2 13.9571 2ZM5.45711 9.5C5.45711 4.80558 9.26269 1 13.9571 1C18.6515 1 22.4571 4.80558 22.4571 9.5C22.4571 14.1944 18.6515 18 13.9571 18C11.79 18 9.81162 17.1884 8.3106 15.8536L6.66421 17.5L6.91421 17.75L6.56066 18.1035L2.56066 22.1035L2.20711 22.4571L1.85355 22.1035L1.35355 21.6035L1 21.25L1.35355 20.8964L5.35355 16.8964L5.70711 16.5429L5.95711 16.7929L7.6035 15.1465C6.26866 13.6455 5.45711 11.6671 5.45711 9.5Z" fill="black"/>
</svg>
