<svg width="24" height="24" viewBox="0 0 24 24" fill="none" xmlns="http://www.w3.org/2000/svg">
<path d="M8.66667 12C8.66667 13.8409 10.1591 15.3333 12 15.3333C13.8409 15.3333 15.3333 13.8409 15.3333 12C15.3333 10.1591 13.8409 8.66667 12 8.66667C10.1591 8.66667 8.66667 10.1591 8.66667 12Z" stroke="black" stroke-linecap="square"/>
<path d="M13.5698 2L14.0836 4.11592L16.1017 4.95186L17.9611 3.81899L20.1811 6.03894L19.0482 7.89834L19.8841 9.9165L22 10.4302V13.5697L19.8841 14.0834L19.0482 16.1016L20.1811 17.961L17.9612 20.181L16.1017 19.0481L14.0836 19.884L13.5698 22H10.4304L9.91662 19.884L7.89847 19.0481L6.03891 20.181L3.81902 17.9612L4.95199 16.1016L4.11605 14.0834L2 13.5697V10.4303L4.11605 9.9165L4.95199 7.89834L3.81905 6.03882L6.03895 3.81892L7.89847 4.95186L9.91662 4.11592L10.4304 2H13.5698Z" stroke="black" stroke-linecap="square"/>
</svg>
