<svg width="40" height="40" viewBox="0 0 40 40" fill="none" xmlns="http://www.w3.org/2000/svg">
<path fill-rule="evenodd" clip-rule="evenodd" d="M29.0743 5.55723L29.4278 5.91078L35.9414 12.4243L36.2949 12.7779L35.9414 13.1314L29.4278 19.645L29.0743 19.9985L28.3672 19.2914L28.7207 18.9379L34.3807 13.2779L16.5482 13.2779H16.0482V12.2779H16.5482L34.3807 12.2779L28.7207 6.61789L28.3672 6.26434L29.0743 5.55723Z" fill="black"/>
<path d="M29.4278 5.91078L29.7814 5.55723L29.4278 5.91078ZM29.0743 5.55723L29.4278 5.20368C29.2326 5.00842 28.916 5.00842 28.7207 5.20368L29.0743 5.55723ZM35.9414 12.4243L36.2949 12.0708L36.2949 12.0708L35.9414 12.4243ZM36.2949 12.7779L36.6485 13.1314C36.8437 12.9362 36.8437 12.6196 36.6485 12.4243L36.2949 12.7779ZM35.9414 13.1314L36.2949 13.485L36.2949 13.485L35.9414 13.1314ZM29.0743 19.9985L28.7207 20.3521C28.916 20.5474 29.2326 20.5474 29.4278 20.3521L29.0743 19.9985ZM28.3672 19.2914L28.0136 18.9379C27.8183 19.1331 27.8183 19.4497 28.0136 19.645L28.3672 19.2914ZM28.7207 18.9379L28.3672 18.5843L28.3672 18.5843L28.7207 18.9379ZM34.3807 13.2779L34.7343 13.6314C34.8773 13.4884 34.92 13.2734 34.8426 13.0865C34.7653 12.8997 34.5829 12.7779 34.3807 12.7779V13.2779ZM16.0482 13.2779H15.5482C15.5482 13.554 15.7721 13.7779 16.0482 13.7779V13.2779ZM16.0482 12.2779V11.7779C15.7721 11.7779 15.5482 12.0017 15.5482 12.2779H16.0482ZM34.3807 12.2779V12.7779C34.5829 12.7779 34.7653 12.6561 34.8426 12.4692C34.92 12.2824 34.8773 12.0673 34.7343 11.9243L34.3807 12.2779ZM28.7207 6.61789L28.3672 6.97144H28.3672L28.7207 6.61789ZM28.3672 6.26434L28.0136 5.91078C27.8183 6.10605 27.8183 6.42263 28.0136 6.61789L28.3672 6.26434ZM29.7814 5.55723L29.4278 5.20368L28.7207 5.91078L29.0743 6.26434L29.7814 5.55723ZM36.2949 12.0708L29.7814 5.55723L29.0743 6.26434L35.5878 12.7779L36.2949 12.0708ZM36.6485 12.4243L36.2949 12.0708L35.5878 12.7779L35.9414 13.1314L36.6485 12.4243ZM36.2949 13.485L36.6485 13.1314L35.9414 12.4243L35.5878 12.7779L36.2949 13.485ZM29.7814 19.9985L36.2949 13.485L35.5878 12.7779L29.0743 19.2914L29.7814 19.9985ZM29.4278 20.3521L29.7814 19.9985L29.0743 19.2914L28.7207 19.645L29.4278 20.3521ZM28.0136 19.645L28.7207 20.3521L29.4278 19.645L28.7207 18.9379L28.0136 19.645ZM28.3672 18.5843L28.0136 18.9379L28.7207 19.645L29.0743 19.2914L28.3672 18.5843ZM34.0272 12.9243L28.3672 18.5843L29.0743 19.2914L34.7343 13.6314L34.0272 12.9243ZM16.5482 13.7779L34.3807 13.7779V12.7779L16.5482 12.7779V13.7779ZM16.0482 13.7779H16.5482V12.7779H16.0482V13.7779ZM15.5482 12.2779V13.2779H16.5482V12.2779H15.5482ZM16.5482 11.7779H16.0482V12.7779H16.5482V11.7779ZM34.3807 11.7779L16.5482 11.7779V12.7779L34.3807 12.7779V11.7779ZM28.3672 6.97144L34.0272 12.6314L34.7343 11.9243L29.0743 6.26434L28.3672 6.97144ZM28.0136 6.61789L28.3672 6.97144L29.0743 6.26434L28.7207 5.91078L28.0136 6.61789ZM28.7207 5.20368L28.0136 5.91078L28.7207 6.61789L29.4278 5.91078L28.7207 5.20368Z" fill="black"/>
<path fill-rule="evenodd" clip-rule="evenodd" d="M11.1113 34.4433L10.7577 34.0897L4.24418 27.5762L3.89062 27.2226L4.24418 26.8691L10.7577 20.3555L11.1113 20.002L11.8184 20.7091L11.4648 21.0626L5.80484 26.7226H23.6373H24.1373V27.7226H23.6373H5.80484L11.4648 33.3826L11.8184 33.7362L11.1113 34.4433Z" fill="black"/>
<path d="M10.7577 34.0897L10.4042 34.4433L10.7577 34.0897ZM11.1113 34.4433L10.7577 34.7968C10.953 34.9921 11.2696 34.9921 11.4648 34.7968L11.1113 34.4433ZM4.24418 27.5762L4.59773 27.2226L4.59773 27.2226L4.24418 27.5762ZM3.89062 27.2226L3.53707 26.8691C3.4433 26.9628 3.39062 27.09 3.39062 27.2226C3.39062 27.3552 3.4433 27.4824 3.53707 27.5762L3.89062 27.2226ZM4.24418 26.8691L4.59773 27.2226L4.59773 27.2226L4.24418 26.8691ZM10.7577 20.3555L10.4042 20.002L10.4042 20.002L10.7577 20.3555ZM11.1113 20.002L11.4648 19.6484C11.2696 19.4531 10.953 19.4531 10.7577 19.6484L11.1113 20.002ZM11.8184 20.7091L12.1719 21.0626C12.3672 20.8674 12.3672 20.5508 12.1719 20.3555L11.8184 20.7091ZM11.4648 21.0626L11.1113 20.7091V20.7091L11.4648 21.0626ZM5.80484 26.7226L5.45128 26.3691C5.30829 26.5121 5.26551 26.7271 5.3429 26.9139C5.42029 27.1008 5.60261 27.2226 5.80484 27.2226V26.7226ZM24.1373 26.7226H24.6373C24.6373 26.4465 24.4135 26.2226 24.1373 26.2226V26.7226ZM24.1373 27.7226V28.2226C24.4135 28.2226 24.6373 27.9987 24.6373 27.7226H24.1373ZM5.80484 27.7226V27.2226C5.60261 27.2226 5.42029 27.3444 5.3429 27.5313C5.26551 27.7181 5.30829 27.9332 5.45128 28.0762L5.80484 27.7226ZM11.4648 33.3826L11.8184 33.029H11.8184L11.4648 33.3826ZM11.8184 33.7362L12.1719 34.0897C12.3672 33.8944 12.3672 33.5779 12.1719 33.3826L11.8184 33.7362ZM10.4042 34.4433L10.7577 34.7968L11.4648 34.0897L11.1113 33.7362L10.4042 34.4433ZM3.89063 27.9297L10.4042 34.4433L11.1113 33.7362L4.59773 27.2226L3.89063 27.9297ZM3.53707 27.5762L3.89063 27.9297L4.59773 27.2226L4.24418 26.8691L3.53707 27.5762ZM3.89063 26.5155L3.53707 26.8691L4.24418 27.5762L4.59773 27.2226L3.89063 26.5155ZM10.4042 20.002L3.89063 26.5155L4.59773 27.2226L11.1113 20.7091L10.4042 20.002ZM10.7577 19.6484L10.4042 20.002L11.1113 20.7091L11.4648 20.3555L10.7577 19.6484ZM12.1719 20.3555L11.4648 19.6484L10.7577 20.3555L11.4648 21.0626L12.1719 20.3555ZM11.8184 21.4162L12.1719 21.0626L11.4648 20.3555L11.1113 20.7091L11.8184 21.4162ZM6.15839 27.0762L11.8184 21.4162L11.1113 20.7091L5.45128 26.3691L6.15839 27.0762ZM23.6373 26.2226H5.80484V27.2226H23.6373V26.2226ZM24.1373 26.2226H23.6373V27.2226H24.1373V26.2226ZM24.6373 27.7226V26.7226H23.6373V27.7226H24.6373ZM23.6373 28.2226H24.1373V27.2226H23.6373V28.2226ZM5.80484 28.2226H23.6373V27.2226H5.80484V28.2226ZM11.8184 33.029L6.15839 27.3691L5.45128 28.0762L11.1113 33.7362L11.8184 33.029ZM12.1719 33.3826L11.8184 33.029L11.1113 33.7362L11.4648 34.0897L12.1719 33.3826ZM11.4648 34.7968L12.1719 34.0897L11.4648 33.3826L10.7577 34.0897L11.4648 34.7968Z" fill="black"/>
</svg>
