<svg width="38" height="38" viewBox="0 0 38 38" fill="none" xmlns="http://www.w3.org/2000/svg">
<circle cx="19" cy="19" r="19" fill="#EBEBEB"/>
<path d="M31.0909 12.6899C30.2011 13.0845 29.245 13.3512 28.2414 13.4711C29.2658 12.8571 30.0524 11.8848 30.4228 10.7264C29.4642 11.2948 28.4025 11.7077 27.2724 11.9303C26.3674 10.9661 25.078 10.3635 23.6511 10.3635C20.9111 10.3635 18.6898 12.5848 18.6898 15.3246C18.6898 15.7134 18.7337 16.0921 18.8183 16.4552C14.695 16.2483 11.0394 14.2732 8.59247 11.2717C8.16543 12.0044 7.92077 12.8566 7.92077 13.7658C7.92077 15.487 8.79671 17.0055 10.1279 17.8952C9.31459 17.8695 8.54966 17.6463 7.8807 17.2747C7.88035 17.2954 7.88035 17.3162 7.88035 17.3371C7.88035 19.7408 9.59047 21.746 11.8601 22.2017C11.4437 22.3151 11.0054 22.3757 10.5529 22.3757C10.2333 22.3757 9.92243 22.3447 9.61957 22.2867C10.2509 24.2578 12.083 25.6921 14.254 25.7322C12.5561 27.0628 10.4169 27.8559 8.09254 27.8559C7.69212 27.8559 7.29718 27.8325 6.90906 27.7867C9.10461 29.1943 11.7124 30.0156 14.5141 30.0156C23.6395 30.0156 28.6296 22.4558 28.6296 15.8999C28.6296 15.6848 28.6248 15.4708 28.6153 15.2581C29.5845 14.5586 30.4257 13.6848 31.0909 12.6899Z" fill="black"/>
</svg>
