<svg width="24" height="24" viewBox="0 0 24 24" fill="none" xmlns="http://www.w3.org/2000/svg">
<path fill-rule="evenodd" clip-rule="evenodd" d="M7.07569 7.05153C7.07569 4.25529 9.32496 1.98145 12.1082 1.98145C12.4463 1.98145 12.777 2.01509 13.0972 2.0794C15.4058 2.54311 17.1408 4.59485 17.1408 7.05153C17.1408 9.36386 16.5503 11.5011 15.0913 13.739C15.5998 14.0245 16.098 14.2931 16.5812 14.5521C16.658 14.5933 16.7344 14.6342 16.8105 14.675C17.3569 14.9676 17.8845 15.2502 18.3773 15.5291C19.4926 16.1602 20.4849 16.802 21.1809 17.5697C21.8391 18.2957 22.2399 19.1429 22.2399 20.1905V22.4756V22.9756H21.7399H2.47656H1.97656V22.4756V20.1905C1.97656 18.5144 2.99497 17.3839 4.38809 16.4228C5.08554 15.9416 5.90375 15.4841 6.78047 15.0109C6.98712 14.8993 7.19711 14.7868 7.41015 14.6727C7.96292 14.3767 8.53624 14.0696 9.12515 13.739C7.66621 11.5011 7.07569 9.36386 7.07569 7.05153ZM12.1082 2.98145C9.885 2.98145 8.07569 4.79979 8.07569 7.05153C8.07569 9.30632 8.68058 11.3763 10.2515 13.6199L10.5648 14.0672L10.0916 14.3399C9.32327 14.7826 8.57389 15.1839 7.87356 15.559C7.66281 15.6718 7.45651 15.7823 7.25547 15.8908C6.37937 16.3637 5.60409 16.7988 4.95595 17.2459C3.65786 18.1414 2.97656 19.0104 2.97656 20.1905V21.9756H21.2399V20.1905C21.2399 19.4324 20.9614 18.8164 20.44 18.2413C19.8598 17.6013 18.9903 17.025 17.8848 16.3994C17.4028 16.1266 16.8864 15.85 16.3387 15.5567C16.2626 15.516 16.186 15.4749 16.1087 15.4335C15.4774 15.0951 14.8101 14.7347 14.1249 14.3399L13.6517 14.0672L13.9649 13.6199C15.5359 11.3763 16.1408 9.30632 16.1408 7.05153C16.1408 5.07485 14.7454 3.43043 12.9002 3.05982C12.6445 3.00846 12.3798 2.98145 12.1082 2.98145Z" fill="black"/>
</svg>
