<svg width="24" height="24" viewBox="0 0 24 24" fill="none" xmlns="http://www.w3.org/2000/svg">
<path d="M14 4H4C2.89543 4 2 4.89543 2 6V14C2 15.1046 2.89543 16 4 16H14C15.1046 16 16 15.1046 16 14V6C16 4.89543 15.1046 4 14 4Z" stroke="black" stroke-width="2" stroke-linecap="round" stroke-linejoin="round"/>
<path d="M16 10C16 8.89543 16.8954 8 18 8H18.5087C19.0926 8 19.6473 8.25513 20.0272 8.69842L21.5185 10.4383C21.8292 10.8008 22 11.2624 22 11.7398V14C22 15.1046 21.1046 16 20 16H18C16.8954 16 16 15.1046 16 14V10Z" stroke="black" stroke-width="2" stroke-linecap="round" stroke-linejoin="round"/>
<path d="M6.5 20C7.88071 20 9 19.1046 9 18C9 16.8954 7.88071 16 6.5 16C5.11929 16 4 16.8954 4 18C4 19.1046 5.11929 20 6.5 20Z" stroke="black" stroke-width="2" stroke-linecap="round" stroke-linejoin="round"/>
<path d="M18.5 20C19.8807 20 21 19.1046 21 18C21 16.8954 19.8807 16 18.5 16C17.1193 16 16 16.8954 16 18C16 19.1046 17.1193 20 18.5 20Z" stroke="black" stroke-width="2" stroke-linecap="round" stroke-linejoin="round"/>
</svg>
