<svg width="38" height="38" viewBox="0 0 38 38" fill="none" xmlns="http://www.w3.org/2000/svg">
<circle cx="19" cy="19" r="19" fill="#EBEBEB"/>
<path fill-rule="evenodd" clip-rule="evenodd" d="M29.9923 11.6859C30.3755 12.0689 30.6516 12.5455 30.7931 13.0683C31.6081 16.3473 31.4198 21.5259 30.809 24.9315C30.6674 25.4543 30.3913 25.9309 30.0082 26.3139C29.625 26.6968 29.1481 26.9728 28.6251 27.1143C26.7102 27.6363 19.0034 27.6363 19.0034 27.6363C19.0034 27.6363 11.2965 27.6363 9.38164 27.1143C8.85858 26.9728 8.38172 26.6968 7.99856 26.3139C7.6154 25.9309 7.3393 25.4543 7.19776 24.9315C6.37802 21.6667 6.60273 16.4849 7.18194 13.0841C7.32347 12.5613 7.59957 12.0847 7.98273 11.7017C8.3659 11.3188 8.84275 11.0428 9.36581 10.9013C11.2807 10.3793 18.9875 10.3635 18.9875 10.3635C18.9875 10.3635 26.6944 10.3635 28.6093 10.8855C29.1323 11.027 29.6092 11.3029 29.9923 11.6859ZM22.7013 18.9999L16.5325 22.7012V15.2986L22.7013 18.9999Z" fill="black"/>
</svg>
