<svg width="40" height="40" viewBox="0 0 40 40" fill="none" xmlns="http://www.w3.org/2000/svg">
<path fill-rule="evenodd" clip-rule="evenodd" d="M20.9167 5.3335V5.8335V9.16851H28.3333L28.737 9.96352L13.4847 30.8352H20.4167H28.3333H28.8333V31.8352H28.3333H20.9167V34.6689V35.1689H19.9167V34.6689V31.8352H12.5L12.0963 31.0402L27.3487 10.1685H20.4167H12.5H12V9.16851H12.5H19.9167V5.8335V5.3335H20.9167Z" fill="black"/>
<path d="M20.9167 5.3335H21.4167V4.8335H20.9167V5.3335ZM20.9167 9.16851H20.4167V9.66851H20.9167V9.16851ZM28.3333 9.16851L28.7791 8.94213L28.6402 8.66851H28.3333V9.16851ZM28.737 9.96352L29.1407 10.2585L29.3218 10.0108L29.1828 9.73714L28.737 9.96352ZM13.4847 30.8352L13.081 30.5402L12.5 31.3352H13.4847V30.8352ZM28.8333 30.8352H29.3333V30.3352H28.8333V30.8352ZM28.8333 31.8352V32.3352H29.3333V31.8352H28.8333ZM20.9167 31.8352V31.3352H20.4167V31.8352H20.9167ZM20.9167 35.1689V35.6689H21.4167V35.1689H20.9167ZM19.9167 35.1689H19.4167V35.6689H19.9167V35.1689ZM19.9167 31.8352H20.4167V31.3352H19.9167V31.8352ZM12.5 31.8352L12.0542 32.0616L12.1931 32.3352H12.5V31.8352ZM12.0963 31.0402L11.6926 30.7452L11.5115 30.9929L11.6505 31.2665L12.0963 31.0402ZM27.3487 10.1685L27.7524 10.4635L28.3333 9.66851H27.3487V10.1685ZM12 10.1685H11.5V10.6685H12V10.1685ZM12 9.16851V8.66851H11.5V9.16851H12ZM19.9167 9.16851V9.66851H20.4167V9.16851H19.9167ZM19.9167 5.3335V4.8335H19.4167V5.3335H19.9167ZM21.4167 5.8335V5.3335H20.4167V5.8335H21.4167ZM21.4167 9.16851V5.8335H20.4167V9.16851H21.4167ZM28.3333 8.66851H20.9167V9.66851H28.3333V8.66851ZM29.1828 9.73714L28.7791 8.94213L27.8875 9.39489L28.2912 10.1899L29.1828 9.73714ZM13.8884 31.1302L29.1407 10.2585L28.3333 9.66851L13.081 30.5402L13.8884 31.1302ZM20.4167 30.3352H13.4847V31.3352H20.4167V30.3352ZM28.3333 30.3352H20.4167V31.3352H28.3333V30.3352ZM28.8333 30.3352H28.3333V31.3352H28.8333V30.3352ZM29.3333 31.8352V30.8352H28.3333V31.8352H29.3333ZM28.3333 32.3352H28.8333V31.3352H28.3333V32.3352ZM20.9167 32.3352H28.3333V31.3352H20.9167V32.3352ZM21.4167 34.6689V31.8352H20.4167V34.6689H21.4167ZM21.4167 35.1689V34.6689H20.4167V35.1689H21.4167ZM19.9167 35.6689H20.9167V34.6689H19.9167V35.6689ZM19.4167 34.6689V35.1689H20.4167V34.6689H19.4167ZM19.4167 31.8352V34.6689H20.4167V31.8352H19.4167ZM12.5 32.3352H19.9167V31.3352H12.5V32.3352ZM11.6505 31.2665L12.0542 32.0616L12.9458 31.6088L12.5421 30.8138L11.6505 31.2665ZM26.945 9.8735L11.6926 30.7452L12.5 31.3352L27.7524 10.4635L26.945 9.8735ZM20.4167 10.6685H27.3487V9.66851H20.4167V10.6685ZM12.5 10.6685H20.4167V9.66851H12.5V10.6685ZM12 10.6685H12.5V9.66851H12V10.6685ZM11.5 9.16851V10.1685H12.5V9.16851H11.5ZM12.5 8.66851H12V9.66851H12.5V8.66851ZM19.9167 8.66851H12.5V9.66851H19.9167V8.66851ZM19.4167 5.8335V9.16851H20.4167V5.8335H19.4167ZM19.4167 5.3335V5.8335H20.4167V5.3335H19.4167ZM20.9167 4.8335H19.9167V5.8335H20.9167V4.8335Z" fill="black"/>
</svg>
