<svg width="93" height="70" viewBox="0 0 93 70" fill="none" xmlns="http://www.w3.org/2000/svg">
<path d="M6.28662 67H7.24268V60.9897H7.73682L7.09229 60.6514L11.5342 67H12.4741V59.2495H11.5181V65.2812H11.0239L11.6685 65.6196L7.22656 59.2495H6.28662V67ZM16.2715 67.1021C16.6976 67.1021 17.0539 67.0179 17.3403 66.8496C17.6304 66.6813 17.847 66.4432 17.9902 66.1353H18.0762V67H19.0107V61.21H18.0762V64.6367C18.0762 64.9733 18.0171 65.2651 17.8989 65.5122C17.7808 65.7557 17.6053 65.9437 17.3726 66.0762C17.1398 66.2087 16.8534 66.2749 16.5132 66.2749C16.0513 66.2749 15.7183 66.1478 15.5142 65.8936C15.3136 65.6393 15.2134 65.2526 15.2134 64.7334V61.21H14.2788V64.959C14.2788 65.4137 14.3522 65.8022 14.499 66.1245C14.6494 66.4432 14.8732 66.6867 15.1704 66.855C15.4676 67.0197 15.8346 67.1021 16.2715 67.1021ZM20.8745 67H23.5332C24.3031 67 24.9601 66.8478 25.5044 66.5435C26.0487 66.2355 26.4658 65.7933 26.7559 65.2168C27.0459 64.6367 27.1909 63.9403 27.1909 63.1274V63.1167C27.1909 62.3039 27.0459 61.6092 26.7559 61.0327C26.4658 60.4562 26.0469 60.0158 25.499 59.7114C24.9548 59.4035 24.2995 59.2495 23.5332 59.2495H20.8745V67ZM21.8413 66.1299V60.1196H23.4688C24.0417 60.1196 24.5322 60.2396 24.9404 60.4795C25.3486 60.7158 25.6602 61.0596 25.875 61.5107C26.0934 61.9583 26.2026 62.4972 26.2026 63.1274V63.1382C26.2026 63.7648 26.0952 64.3019 25.8804 64.7495C25.6655 65.1971 25.354 65.5391 24.9458 65.7754C24.5376 66.0117 24.0452 66.1299 23.4688 66.1299H21.8413ZM31.1118 67.1021C31.452 67.1021 31.7581 67.0591 32.0303 66.9731C32.306 66.8836 32.5441 66.7655 32.7446 66.6187C32.9451 66.4683 33.1081 66.3018 33.2334 66.1191C33.3623 65.9329 33.4518 65.7414 33.502 65.5444L33.5127 65.5015H32.5781L32.5566 65.5498C32.5065 65.6644 32.4188 65.7772 32.2935 65.8882C32.1681 65.9992 32.0088 66.0905 31.8154 66.1621C31.6221 66.2337 31.3947 66.2695 31.1333 66.2695C30.7824 66.2695 30.478 66.1925 30.2202 66.0386C29.9624 65.881 29.7637 65.6572 29.624 65.3672C29.4844 65.0736 29.4146 64.7209 29.4146 64.3091V63.9385C29.4146 63.5052 29.4862 63.14 29.6294 62.8428C29.7726 62.5456 29.966 62.3218 30.2095 62.1714C30.4565 62.0174 30.7358 61.9404 31.0474 61.9404C31.3589 61.9404 31.6346 62.0138 31.8745 62.1606C32.1144 62.3039 32.3024 62.5223 32.4385 62.8159C32.5745 63.1095 32.6426 63.4837 32.6426 63.9385V64.3091L33.1045 63.627H28.9419V64.3735H33.5825V64.0083C33.5825 63.4318 33.4805 62.9269 33.2764 62.4937C33.0758 62.0568 32.7858 61.7166 32.4062 61.4731C32.0303 61.2297 31.5791 61.1079 31.0527 61.1079C30.5299 61.1079 30.0734 61.235 29.6831 61.4893C29.2928 61.7435 28.9902 62.0962 28.7754 62.5474C28.5641 62.9985 28.4585 63.5231 28.4585 64.1211V64.1265C28.4585 64.7316 28.5641 65.258 28.7754 65.7056C28.9902 66.1496 29.2946 66.4933 29.6885 66.7368C30.0859 66.9803 30.5604 67.1021 31.1118 67.1021ZM37.0898 67.043C37.1829 67.043 37.2743 67.0376 37.3638 67.0269C37.4533 67.0161 37.5428 67.0036 37.6323 66.9893V66.1943C37.5464 66.2015 37.473 66.2069 37.4121 66.2104C37.3548 66.214 37.285 66.2158 37.2026 66.2158C36.9019 66.2158 36.687 66.1424 36.5581 65.9956C36.4292 65.8452 36.3647 65.5999 36.3647 65.2598V61.9834H37.6323V61.21H36.3647V59.7114H35.3979V61.21H34.4849V61.9834H35.3979V65.4961C35.3979 66.0475 35.5304 66.4432 35.7954 66.6831C36.064 66.923 36.4954 67.043 37.0898 67.043ZM41.3169 67.1021C41.6571 67.1021 41.9632 67.0591 42.2354 66.9731C42.5111 66.8836 42.7492 66.7655 42.9497 66.6187C43.1502 66.4683 43.3132 66.3018 43.4385 66.1191C43.5674 65.9329 43.6569 65.7414 43.707 65.5444L43.7178 65.5015H42.7832L42.7617 65.5498C42.7116 65.6644 42.6239 65.7772 42.4985 65.8882C42.3732 65.9992 42.2139 66.0905 42.0205 66.1621C41.8271 66.2337 41.5998 66.2695 41.3384 66.2695C40.9875 66.2695 40.6831 66.1925 40.4253 66.0386C40.1675 65.881 39.9688 65.6572 39.8291 65.3672C39.6895 65.0736 39.6196 64.7209 39.6196 64.3091V63.9385C39.6196 63.5052 39.6912 63.14 39.8345 62.8428C39.9777 62.5456 40.1711 62.3218 40.4146 62.1714C40.6616 62.0174 40.9409 61.9404 41.2524 61.9404C41.564 61.9404 41.8397 62.0138 42.0796 62.1606C42.3195 62.3039 42.5075 62.5223 42.6436 62.8159C42.7796 63.1095 42.8477 63.4837 42.8477 63.9385V64.3091L43.3096 63.627H39.147V64.3735H43.7876V64.0083C43.7876 63.4318 43.6855 62.9269 43.4814 62.4937C43.2809 62.0568 42.9909 61.7166 42.6113 61.4731C42.2354 61.2297 41.7842 61.1079 41.2578 61.1079C40.735 61.1079 40.2785 61.235 39.8882 61.4893C39.4979 61.7435 39.1953 62.0962 38.9805 62.5474C38.7692 62.9985 38.6636 63.5231 38.6636 64.1211V64.1265C38.6636 64.7316 38.7692 65.258 38.9805 65.7056C39.1953 66.1496 39.4997 66.4933 39.8936 66.7368C40.291 66.9803 40.7655 67.1021 41.3169 67.1021ZM47.6064 67.1021C48.0719 67.1021 48.4694 67.0251 48.7988 66.8711C49.1283 66.7171 49.3932 66.5059 49.5938 66.2373C49.7943 65.9652 49.9339 65.6554 50.0127 65.3081L50.0234 65.249L49.0996 65.2544L49.0889 65.2866C48.9814 65.6089 48.8042 65.8542 48.5571 66.0225C48.3101 66.1908 47.9914 66.2749 47.6011 66.2749C47.2573 66.2749 46.9583 66.1854 46.7041 66.0063C46.4499 65.8273 46.2529 65.5749 46.1133 65.249C45.9736 64.9196 45.9038 64.5329 45.9038 64.0889V64.0781C45.9038 63.6413 45.9718 63.2635 46.1079 62.9448C46.2476 62.6226 46.4445 62.3737 46.6987 62.1982C46.953 62.0228 47.2537 61.9351 47.6011 61.9351C48.0164 61.9351 48.3512 62.0353 48.6055 62.2358C48.8597 62.4364 49.0226 62.6799 49.0942 62.9663L49.0996 62.9824H50.0288L50.0234 62.9502C49.9661 62.6064 49.8354 62.2967 49.6313 62.021C49.4272 61.7417 49.1551 61.5197 48.8149 61.355C48.4748 61.1903 48.0701 61.1079 47.6011 61.1079C47.0604 61.1079 46.5913 61.2314 46.1938 61.4785C45.7964 61.722 45.4884 62.0658 45.27 62.5098C45.0552 62.9538 44.9478 63.4766 44.9478 64.0781V64.0889C44.9478 64.7012 45.057 65.2329 45.2754 65.6841C45.4938 66.1353 45.8018 66.4844 46.1992 66.7314C46.5967 66.9785 47.0658 67.1021 47.6064 67.1021ZM53.5576 67.043C53.6507 67.043 53.742 67.0376 53.8315 67.0269C53.9211 67.0161 54.0106 67.0036 54.1001 66.9893V66.1943C54.0142 66.2015 53.9408 66.2069 53.8799 66.2104C53.8226 66.214 53.7528 66.2158 53.6704 66.2158C53.3696 66.2158 53.1548 66.1424 53.0259 65.9956C52.897 65.8452 52.8325 65.5999 52.8325 65.2598V61.9834H54.1001V61.21H52.8325V59.7114H51.8657V61.21H50.9526V61.9834H51.8657V65.4961C51.8657 66.0475 51.9982 66.4432 52.2632 66.6831C52.5317 66.923 52.9632 67.043 53.5576 67.043ZM61.249 67.1826C61.8255 67.1826 62.3286 67.0877 62.7583 66.8979C63.188 66.7046 63.521 66.4325 63.7573 66.0815C63.9937 65.7306 64.1118 65.3135 64.1118 64.8301V64.8247C64.1118 64.2661 63.9382 63.8167 63.5908 63.4766C63.2435 63.1364 62.6652 62.8768 61.856 62.6978L60.9966 62.5044C60.4702 62.3898 60.0924 62.2269 59.8633 62.0156C59.6341 61.8044 59.5195 61.5448 59.5195 61.2368V61.2314C59.5195 60.9593 59.5947 60.7301 59.7451 60.5439C59.8991 60.3542 60.105 60.2091 60.3628 60.1089C60.6206 60.0086 60.9106 59.9585 61.2329 59.9585C61.5695 59.9549 61.8631 60.005 62.1138 60.1089C62.3644 60.2127 62.5649 60.3542 62.7153 60.5332C62.8657 60.7087 62.9588 60.911 62.9946 61.1401L63.0054 61.21H63.9722L63.9668 61.1348C63.9417 60.748 63.811 60.3989 63.5747 60.0874C63.342 59.7759 63.0269 59.5288 62.6294 59.3462C62.2319 59.16 61.7754 59.0669 61.2598 59.0669C60.7262 59.0669 60.2536 59.16 59.8418 59.3462C59.4336 59.5324 59.1131 59.7902 58.8804 60.1196C58.6512 60.4491 58.5348 60.8286 58.5312 61.2583V61.2637C58.5312 61.8258 58.7067 62.2878 59.0576 62.6494C59.4121 63.0075 59.9779 63.2725 60.7549 63.4443L61.6143 63.6323C62.1478 63.7505 62.5327 63.9206 62.769 64.1426C63.0054 64.361 63.1235 64.6313 63.1235 64.9536V64.959C63.1235 65.2204 63.0448 65.4513 62.8872 65.6519C62.7297 65.8524 62.513 66.0099 62.2373 66.1245C61.9652 66.2355 61.6536 66.291 61.3027 66.291C60.9303 66.291 60.5973 66.2391 60.3037 66.1353C60.0137 66.0314 59.7809 65.8864 59.6055 65.7002C59.4336 65.5104 59.3351 65.2866 59.3101 65.0288L59.3047 64.9697H58.3379L58.3433 65.0288C58.3826 65.4478 58.5241 65.8201 58.7676 66.146C59.0146 66.4683 59.3477 66.7225 59.7666 66.9087C60.1891 67.0913 60.6833 67.1826 61.249 67.1826ZM67.9736 67.1021C68.4391 67.1021 68.8366 67.0251 69.166 66.8711C69.4954 66.7171 69.7604 66.5059 69.9609 66.2373C70.1615 65.9652 70.3011 65.6554 70.3799 65.3081L70.3906 65.249L69.4668 65.2544L69.4561 65.2866C69.3486 65.6089 69.1714 65.8542 68.9243 66.0225C68.6772 66.1908 68.3586 66.2749 67.9683 66.2749C67.6245 66.2749 67.3255 66.1854 67.0713 66.0063C66.8171 65.8273 66.6201 65.5749 66.4805 65.249C66.3408 64.9196 66.271 64.5329 66.271 64.0889V64.0781C66.271 63.6413 66.339 63.2635 66.4751 62.9448C66.6147 62.6226 66.8117 62.3737 67.0659 62.1982C67.3201 62.0228 67.6209 61.9351 67.9683 61.9351C68.3836 61.9351 68.7184 62.0353 68.9727 62.2358C69.2269 62.4364 69.3898 62.6799 69.4614 62.9663L69.4668 62.9824H70.396L70.3906 62.9502C70.3333 62.6064 70.2026 62.2967 69.9985 62.021C69.7944 61.7417 69.5223 61.5197 69.1821 61.355C68.842 61.1903 68.4373 61.1079 67.9683 61.1079C67.4276 61.1079 66.9585 61.2314 66.561 61.4785C66.1636 61.722 65.8556 62.0658 65.6372 62.5098C65.4224 62.9538 65.3149 63.4766 65.3149 64.0781V64.0889C65.3149 64.7012 65.4242 65.2329 65.6426 65.6841C65.861 66.1353 66.1689 66.4844 66.5664 66.7314C66.9639 66.9785 67.4329 67.1021 67.9736 67.1021ZM74.1396 67.1021C74.6911 67.1021 75.1655 66.9821 75.563 66.7422C75.9604 66.4987 76.2666 66.1532 76.4814 65.7056C76.6999 65.258 76.8091 64.7262 76.8091 64.1104V64.0996C76.8091 63.4801 76.6999 62.9466 76.4814 62.499C76.2666 62.0514 75.9604 61.7077 75.563 61.4678C75.1655 61.2279 74.6911 61.1079 74.1396 61.1079C73.5918 61.1079 73.1174 61.2279 72.7163 61.4678C72.3188 61.7077 72.0109 62.0514 71.7925 62.499C71.5776 62.9466 71.4702 63.4801 71.4702 64.0996V64.1104C71.4702 64.7262 71.5776 65.258 71.7925 65.7056C72.0109 66.1532 72.3188 66.4987 72.7163 66.7422C73.1174 66.9821 73.5918 67.1021 74.1396 67.1021ZM74.1396 66.2749C73.7744 66.2749 73.4647 66.189 73.2104 66.0171C72.9562 65.8452 72.7611 65.5981 72.625 65.2759C72.4925 64.9536 72.4263 64.5651 72.4263 64.1104V64.0996C72.4263 63.6413 72.4925 63.251 72.625 62.9287C72.7611 62.6064 72.9562 62.3612 73.2104 62.1929C73.4647 62.021 73.7744 61.9351 74.1396 61.9351C74.5049 61.9351 74.8146 62.021 75.0688 62.1929C75.3231 62.3612 75.5164 62.6064 75.6489 62.9287C75.785 63.251 75.853 63.6413 75.853 64.0996V64.1104C75.853 64.5651 75.785 64.9536 75.6489 65.2759C75.5164 65.5981 75.3231 65.8452 75.0688 66.0171C74.8146 66.189 74.5049 66.2749 74.1396 66.2749ZM78.2593 67H79.1938V63.4121C79.1938 63.1292 79.2583 62.8822 79.3872 62.6709C79.5197 62.4596 79.7005 62.2949 79.9297 62.1768C80.1589 62.0586 80.422 61.9995 80.7192 61.9995C80.8231 61.9995 80.9198 62.0049 81.0093 62.0156C81.1024 62.0228 81.1973 62.0353 81.2939 62.0532V61.1455C81.2474 61.1383 81.1794 61.1312 81.0898 61.124C81.0039 61.1133 80.9162 61.1079 80.8267 61.1079C80.4364 61.1079 80.1087 61.1921 79.8438 61.3604C79.5788 61.5286 79.3908 61.765 79.2798 62.0693H79.1938V61.21H78.2593V67ZM84.6509 67.1021C84.991 67.1021 85.2972 67.0591 85.5693 66.9731C85.8451 66.8836 86.0832 66.7655 86.2837 66.6187C86.4842 66.4683 86.6471 66.3018 86.7725 66.1191C86.9014 65.9329 86.9909 65.7414 87.041 65.5444L87.0518 65.5015H86.1172L86.0957 65.5498C86.0456 65.6644 85.9578 65.7772 85.8325 65.8882C85.7072 65.9992 85.5479 66.0905 85.3545 66.1621C85.1611 66.2337 84.9338 66.2695 84.6724 66.2695C84.3215 66.2695 84.0171 66.1925 83.7593 66.0386C83.5015 65.881 83.3027 65.6572 83.1631 65.3672C83.0234 65.0736 82.9536 64.7209 82.9536 64.3091V63.9385C82.9536 63.5052 83.0252 63.14 83.1685 62.8428C83.3117 62.5456 83.505 62.3218 83.7485 62.1714C83.9956 62.0174 84.2749 61.9404 84.5864 61.9404C84.8979 61.9404 85.1737 62.0138 85.4136 62.1606C85.6535 62.3039 85.8415 62.5223 85.9775 62.8159C86.1136 63.1095 86.1816 63.4837 86.1816 63.9385V64.3091L86.6436 63.627H82.481V64.3735H87.1216V64.0083C87.1216 63.4318 87.0195 62.9269 86.8154 62.4937C86.6149 62.0568 86.3249 61.7166 85.9453 61.4731C85.5693 61.2297 85.1182 61.1079 84.5918 61.1079C84.069 61.1079 83.6125 61.235 83.2222 61.4893C82.8319 61.7435 82.5293 62.0962 82.3145 62.5474C82.1032 62.9985 81.9976 63.5231 81.9976 64.1211V64.1265C81.9976 64.7316 82.1032 65.258 82.3145 65.7056C82.5293 66.1496 82.8337 66.4933 83.2275 66.7368C83.625 66.9803 84.0994 67.1021 84.6509 67.1021Z" fill="#EBEBF5" fill-opacity="0.6"/>
<rect x="23" y="2" width="48" height="48" rx="24" fill="#C50808" fill-opacity="0.5" stroke="#C50808" stroke-width="4"/>
<path d="M37.7129 31.1758C38.4209 31.1758 39.0508 31.0439 39.6025 30.7803C40.1543 30.5117 40.5889 30.1455 40.9062 29.6816C41.2236 29.2178 41.3823 28.6929 41.3823 28.1069V28.0923C41.3823 27.3403 41.1431 26.7373 40.6646 26.2832C40.1909 25.8242 39.5684 25.563 38.7969 25.4995V25.4702C39.2363 25.3774 39.6245 25.2188 39.9614 24.9941C40.2983 24.7695 40.562 24.4888 40.7524 24.1519C40.9429 23.8149 41.0381 23.4292 41.0381 22.9946V22.98C41.0381 22.4429 40.8989 21.9717 40.6206 21.5664C40.3472 21.1562 39.959 20.8364 39.4561 20.6069C38.958 20.3726 38.3721 20.2554 37.6982 20.2554C37.0391 20.2554 36.4556 20.375 35.9478 20.6143C35.4448 20.8535 35.0396 21.188 34.7319 21.6177C34.4292 22.0474 34.2485 22.5503 34.1899 23.1265L34.1826 23.1997H35.4497L35.457 23.1265C35.4961 22.77 35.6133 22.4624 35.8086 22.2036C36.0039 21.9448 36.2627 21.7471 36.585 21.6104C36.9121 21.4688 37.2832 21.3979 37.6982 21.3979C38.1279 21.3979 38.4917 21.4663 38.7896 21.603C39.0923 21.7397 39.3218 21.9375 39.478 22.1963C39.6343 22.4551 39.7124 22.77 39.7124 23.1411V23.1558C39.7124 23.5073 39.6221 23.8223 39.4414 24.1006C39.2607 24.374 39.0093 24.5913 38.687 24.7524C38.3647 24.9087 37.9937 24.9868 37.5737 24.9868H36.3066V26.1001H37.6323C38.3745 26.1001 38.9604 26.2759 39.3901 26.6274C39.8247 26.9741 40.042 27.4722 40.042 28.1216V28.1362C40.042 28.5073 39.9443 28.8369 39.749 29.125C39.5537 29.4082 39.2803 29.6304 38.9287 29.7915C38.582 29.9526 38.1768 30.0332 37.7129 30.0332C37.0098 30.0332 36.436 29.8696 35.9917 29.5425C35.5474 29.2153 35.2983 28.793 35.2446 28.2754L35.2373 28.2021H33.9702L33.9775 28.29C34.0264 28.8467 34.207 29.3423 34.5195 29.7769C34.8369 30.2114 35.2666 30.5532 35.8086 30.8022C36.3506 31.0513 36.9854 31.1758 37.7129 31.1758ZM46.9927 31.249C47.7104 31.249 48.3452 31.0952 48.897 30.7876C49.4487 30.48 49.8809 30.0552 50.1934 29.5132C50.5107 28.9663 50.6694 28.3389 50.6694 27.6309V27.6162C50.6694 26.9326 50.5229 26.3271 50.23 25.7998C49.937 25.2676 49.5342 24.8501 49.0215 24.5474C48.5088 24.2397 47.9204 24.0859 47.2563 24.0859C46.7778 24.0859 46.3408 24.1812 45.9453 24.3716C45.5498 24.5571 45.2349 24.8281 45.0005 25.1846H44.8833L45.2422 21.6104H50.0835V20.4312H44.2021L43.6455 26.5029H44.7881C44.8564 26.376 44.9297 26.2612 45.0078 26.1587C45.0908 26.0562 45.1787 25.9609 45.2715 25.873C45.501 25.6582 45.7622 25.4971 46.0552 25.3896C46.353 25.2822 46.6777 25.2285 47.0293 25.2285C47.4883 25.2285 47.8936 25.3311 48.2451 25.5361C48.5967 25.7412 48.8726 26.0269 49.0728 26.3931C49.2778 26.7544 49.3804 27.1694 49.3804 27.6382V27.6528C49.3804 28.1265 49.2803 28.5464 49.0801 28.9126C48.8799 29.2788 48.6016 29.5669 48.2451 29.7769C47.8887 29.9819 47.4761 30.0845 47.0073 30.0845C46.5972 30.0845 46.2261 30.0039 45.894 29.8428C45.5669 29.6816 45.3008 29.4644 45.0957 29.1909C44.8955 28.9126 44.7734 28.605 44.7295 28.2681L44.7222 28.2095H43.4551L43.4624 28.29C43.5161 28.8516 43.6968 29.3569 44.0044 29.8062C44.3169 30.2505 44.7295 30.6021 45.2422 30.8608C45.7549 31.1196 46.3384 31.249 46.9927 31.249ZM56.3311 31.249C57.1123 31.249 57.7812 31.0244 58.3379 30.5752C58.8945 30.126 59.3218 29.4888 59.6196 28.6636C59.9224 27.8335 60.0737 26.8521 60.0737 25.7192V25.7046C60.0737 24.5718 59.9224 23.5928 59.6196 22.7676C59.3218 21.9424 58.8945 21.3052 58.3379 20.856C57.7812 20.4067 57.1123 20.1821 56.3311 20.1821C55.5498 20.1821 54.8809 20.4067 54.3242 20.856C53.7725 21.3052 53.3477 21.9424 53.0498 22.7676C52.752 23.5928 52.603 24.5718 52.603 25.7046V25.7192C52.603 26.8521 52.752 27.8335 53.0498 28.6636C53.3477 29.4888 53.7725 30.126 54.3242 30.5752C54.8809 31.0244 55.5498 31.249 56.3311 31.249ZM56.3311 30.0991C55.8281 30.0991 55.396 29.9209 55.0347 29.5645C54.6782 29.208 54.4048 28.7026 54.2144 28.0483C54.0239 27.394 53.9287 26.6177 53.9287 25.7192V25.7046C53.9287 24.8062 54.0239 24.0322 54.2144 23.3828C54.4048 22.7285 54.6782 22.2256 55.0347 21.874C55.396 21.5176 55.8281 21.3394 56.3311 21.3394C56.8389 21.3394 57.271 21.5176 57.6274 21.874C57.9888 22.2256 58.2646 22.7285 58.4551 23.3828C58.6504 24.0322 58.748 24.8062 58.748 25.7046V25.7192C58.748 26.6177 58.6504 27.394 58.4551 28.0483C58.2646 28.7026 57.9888 29.208 57.6274 29.5645C57.271 29.9209 56.8389 30.0991 56.3311 30.0991Z" fill="white"/>
</svg>
